<?xml version="1.0" standalone="no"?>
<!DOCTYPE svg PUBLIC "-//W3C//DTD SVG 1.1//EN" "http://www.w3.org/Graphics/SVG/1.1/DTD/svg11.dtd" >
<svg xmlns="http://www.w3.org/2000/svg">
<metadata></metadata>
<defs>
<font id="openspecimen-fonticonsgeneric" horiz-adv-x="2048" >
<font-face units-per-em="2048" ascent="1920" descent="-128" />
<missing-glyph horiz-adv-x="500" />
<glyph horiz-adv-x="0" />
<glyph unicode="&#xd;" />
<glyph unicode="0" d="M512 512v1024h1024v-1024h-1024z" />
<glyph unicode="1" d="M256 1024q16 -20 40 -54t106 -124t168 -156t210 -122t244 -56q148 0 298 72t248 166t160 172t62 102q-16 20 -40 54t-106 124t-168 156t-210 122t-244 56t-242 -52t-212 -128t-164 -152t-110 -128zM640 1024q0 160 112 272t272 112t272 -112t112 -272t-112 -272 t-272 -112t-272 112t-112 272zM896 1024q0 -56 36 -92t92 -36t92 36t36 92t-36 92t-92 36t-92 -36t-36 -92z" />
<glyph unicode="2" d="M256 1280l640 512v-384h256h64q236 0 406 -170t170 -406t-170 -406t-406 -170h-448v256h448q132 0 226 94t94 226t-94 226t-226 94h-64h-256v-384z" />
<glyph unicode="3" d="M128 572h444v-572h1348v1476h-444v572h-1348v-1476zM300 744v1132h1004v-400h-732v-732h-272zM744 172v1132h1004v-1132h-1004zM928 580v176h232v232h176v-232h232v-176h-232v-232h-176v232h-232z" />
<glyph unicode="4" d="M128 320h772q-32 40 -80 128h-564v896h1408v512h-1536v-1536zM384 576h396q-12 60 -12 128h-384v-128zM384 832h396q24 88 44 128h-440v-128zM384 1088h516q56 72 128 128h-644v-128zM1024 720q0 -152 108 -258t260 -106q108 0 192 48l188 -184q36 -36 84 -22t60 56 t-24 86l-184 184q56 88 56 196q0 152 -110 260t-262 108t-260 -108t-108 -260zM1280 576v128v4v124h256v-124v-4v-4v-124h-256z" />
<glyph unicode="5" d="M0 1132q4 24 14 46t28 50t26 40q-8 -32 44 -66t108 -54q88 -36 172 -60q20 -4 74 -20t80 -22t66 -22t68 -32t48 -36q48 -48 52 -100q8 -68 -52 -176q-24 76 -176 124q-4 0 -166 46t-234 78q-108 52 -140 120q-12 32 -12 84zM20 704q0 48 14 88t30 56l12 16 q204 -192 616 -244q-8 -8 -30 -24t-26 -20q-104 -52 -236 -64q-156 -4 -324 56q-56 40 -56 136zM20 1448q-4 28 2 56t10 40t20 42t20 34q-8 -20 32 -52q64 -44 340 -124q240 -64 316 -148q44 -44 40 -116q-4 -52 -68 -144q0 36 -44 64q-104 72 -368 140q-124 32 -188 68 q-100 52 -112 140zM108 1684q100 92 272 104q172 16 344 -52q56 -36 56 -124q0 -48 -14 -90t-30 -62l-12 -20q-204 192 -616 244zM900 1024h256v-512h384v-128h512v512h-512v-256h-256v896h256v-256h512v512h-512v-128h-384v-512h-256v-128z" />
<glyph unicode="6" d="M512 252l512 -48l512 48v852l-512 40l-196 -16l-84 212q-48 112 -12 214t144 146q104 44 200 -6t144 -162l84 -212l120 48l-88 212q-64 160 -210 230t-298 6t-210 -216t6 -308l72 -176l-184 -12v-852z" />
<glyph unicode="7" d="M0 0h2048v2048h-2048v-2048zM128 128v1792h1792v-1792h-1792zM256 384v128h1024v-128h-1024zM256 896v128h1024v-128h-1024zM256 1408v128h1024v-128h-1024zM1340 560l76 80l100 -100l232 232l80 -76l-312 -312zM1340 1072l76 80l100 -100l232 232l80 -76l-312 -312z M1340 1584l76 80l100 -100l232 232l80 -76l-312 -312z" />
<glyph unicode="A" d="M0 0v256h2048v-256h-2048zM0 384v256h2048v-256h-2048zM0 768h1408v1152h-384v128h-128v-128h-512v128h-128v-128h-256v-1152zM128 896v896h1152v-896h-1152zM256 1024h896v640h-896v-640zM384 1152v128h128v-128h-128zM384 1408v128h128v-128h-128zM640 1152v128h128 v-128h-128zM640 1408v128h128v-128h-128zM896 1152v128h128v-128h-128zM896 1408v128h128v-128h-128zM1536 768v256h512v-256h-512zM1536 1152v256h512v-256h-512zM1536 1536v256h512v-256h-512z" />
<glyph unicode="B" d="M0 768v1152h128v128h128v-128h768v128h128v-128h256v-456q-80 16 -128 16v312h-1152v-896h292v-4l24 -36l12 -12q8 -12 24 -34t32 -42h-512zM256 1020h256q48 60 124 136v120h132q108 80 208 128h-80v128h128v-104q96 32 148 40v192h-916v-640zM384 1148v128h124v-128 h-124zM384 1404v128h124v-128h-124zM564 908q12 -20 34 -50t94 -106t146 -136t184 -108t214 -48q168 0 334 106t252 208t86 134q-12 20 -34 50t-94 106t-146 136t-184 108t-214 48q-164 0 -332 -112t-256 -224zM636 1404v128h132v-128h-132zM900 908q0 140 98 238t238 98 t238 -98t98 -238t-98 -238t-238 -98t-238 98t-98 238zM1124 908q0 -44 34 -78t78 -34q48 0 80 34t32 78q0 48 -32 80t-80 32q-44 0 -78 -32t-34 -80z" />
<glyph unicode="C" d="M0 0v256h2048v-256h-2048zM0 640l4 -256h1404v256v40q0 104 -6 150t-48 92t-130 66l-102 24t-86 24t-74 32t-44 42q-20 24 -20 54v6q2 34 26 74q130 253 130 427v15q-6 178 -102 270t-248 92t-250 -92t-98 -280t132 -432q24 -40 26 -74v-5q0 -31 -22 -55q-24 -26 -44 -42 t-76 -32l-84 -24t-100 -24q-92 -20 -134 -68t-48 -92t-6 -148v-40zM1536 384v256h512v-256h-512zM1536 768v256h512v-256h-512zM1536 1152v256h512v-256h-512z" />
<glyph unicode="D" d="M0 0v384q0 112 8 164t56 100t148 72q272 64 332 120q33 35 33 80q0 42 -29 92q-112 208 -140 384q-10 65 -10 121q0 96 30 167q48 112 144 174t224 62t224 -60t144 -170q30 -69 31 -166q0 -56 -11 -122q-28 -178 -140 -390q-23 -47 -23 -86q0 -88 119 -138 q-116 -156 -116 -340q0 -272 216 -448h-1240zM1152 448q0 -184 132 -316t316 -132t316 132t132 316t-132 316t-316 132t-316 -132t-132 -316zM1356 412l80 80l96 -100l232 232l80 -80l-312 -312z" />
<glyph unicode="E" d="M0 0v384q0 112 8 164t56 100t148 72q272 64 332 120q33 35 33 80q0 42 -29 92q-112 208 -140 384q-10 65 -10 121q0 96 30 167q48 112 144 174t224 62t224 -60t144 -170q30 -69 31 -166q0 -56 -11 -122q-28 -178 -140 -390q-23 -47 -23 -86q0 -88 119 -138 q-116 -156 -116 -340q0 -272 216 -448h-1240zM1152 448q0 -184 132 -316t316 -132t316 132t132 316t-132 316t-316 132t-316 -132t-132 -316zM1280 384v128h256v256h128v-256h256v-128h-256v-256h-128v256h-256z" />
<glyph unicode="F" d="M0 0h2048v1664h-384v384h-256v-384h-768v384h-256v-384h-384v-1664zM256 256v1152h1536v-1152h-1536zM384 384h1280v896h-1280v-896zM512 520v248h248v-248h-248zM512 896v256h256v-256h-256zM896 520v248h252v-248h-252zM896 896v256h256v-256h-256zM1280 512v256h256 v-256h-256zM1280 896v256h256v-256h-256z" />
<glyph unicode="G" d="M196 200l96 444l348 -348zM380 736l816 816l364 -364l-816 -816zM1288 1640l168 168q32 36 100 38h8q62 0 92 -30l160 -160q36 -32 36 -104t-36 -104l-168 -168z" />
<glyph unicode="H" d="M128 1664h156l96 -1664h1288l92 1664h160v256h-640v128h-512v-128h-640v-256zM500 1664h184l28 -1408h-132zM932 1664h184l-28 -1408h-128zM1336 256l28 1408h184l-80 -1408h-132z" />
<glyph unicode="I" d="M264 452q0 -76 56 -132t132 -56q80 0 136 56t56 132t-58 134t-134 58t-132 -56t-56 -136zM264 1404q0 -52 36 -90t88 -38t90 38t38 90t-38 90t-90 38t-88 -38t-36 -90zM644 1392q0 -144 94 -330t190 -302l96 -116q44 48 106 124t168 276t106 348q0 164 -110 278t-270 114 t-270 -114t-110 -278zM860 1392q0 68 48 118t116 50t116 -50t48 -118q0 -72 -48 -122t-116 -50t-116 50t-48 122zM1404 452q0 -76 56 -132t136 -56q76 0 132 56t56 132q0 80 -56 136t-132 56t-134 -58t-58 -134zM1532 1404q0 -52 38 -90t90 -38t88 38t36 90t-36 90t-88 38 t-90 -38t-38 -90z" />
<glyph unicode="J" d="M0 0v640h128v-512h512v-128h-640zM0 1024q20 -28 54 -74t144 -164t224 -208t280 -164t322 -74q196 0 396 96t330 222t214 230t84 136q-20 28 -54 74t-144 164t-224 208t-280 164t-322 74t-320 -70t-286 -170t-220 -202t-150 -170zM0 1408h128v512h512v128h-640v-640z M512 1024q0 212 150 362t362 150t362 -150t150 -362t-150 -362t-362 -150t-362 150t-150 362zM852 1024q0 -72 50 -122t122 -50t122 50t50 122t-50 122t-122 50t-122 -50t-50 -122zM1408 0h640v640h-128v-512h-512v-128zM1408 1920v128h640v-640h-128v512h-512z" />
<glyph unicode="K" d="M128 256v1536h1792v-1536h-1792zM256 384h1536v1280h-1536v-1280zM392 508v256h1280v-256h-1280zM392 892v640h512v-640h-512zM1032 892v128h640v-128h-640zM1032 1148v128h640v-128h-640zM1032 1404v128h640v-128h-640z" />
<glyph unicode="L" d="M464 992q-2 -16 -2 -30q0 -44 18 -82q44 -96 196 -168q72 -36 166 -66t216 -62t178 -48q216 -72 248 -168q4 4 24 40t22 42t16 46t10 52t0 60q-12 80 -72 140q-32 28 -70 52t-94 44t-90 30t-112 30t-102 28q-140 40 -244 84q-217 86 -217 162q0 5 1 10l-36 -54t-40 -74 t-16 -68zM488 396q0 -60 20 -106t40 -66l20 -16q205 -81 401 -81q26 0 51 1q184 12 332 92q52 24 80 60q-580 72 -864 340q-80 -80 -80 -224zM492 1440q16 -120 156 -200q80 -44 264 -92q368 -100 516 -200q24 -16 38 -32t18 -24t4 -20v-8q88 116 96 200v12q0 88 -56 152 q-104 112 -440 208q-24 8 -102 28t-112 30t-90 28t-96 40t-76 46q-28 20 -40 38t-12 26l4 8q0 4 -4 0q-8 -16 -24 -50t-26 -56t-16 -60q-4 -23 -4 -45q0 -15 2 -29zM612 1768q580 -72 864 -340q80 96 80 240q0 56 -18 98t-38 58l-20 16q-218 79 -407 79q-39 0 -77 -3 q-240 -20 -384 -148z" />
<glyph unicode="M" d="M256 256v1536h1256l280 -272v-1264h-1536zM508 384h1028v512h-1028v-512zM640 1152h760v516h-760v-516zM1156 1284v252h124v-252h-124z" />
<glyph unicode="N" d="M256 512v896h256v384h1024v-384h256v-896h-128v4v252h-1280v-256h-128zM512 256v384h1024v-384h-1024zM640 1408h768v256h-768v-256zM1536 1160h128v124h-128v-124z" />
<glyph unicode="O" d="M128 1024q0 -372 262 -634t634 -262t634 262t262 634t-262 634t-634 262t-634 -262t-262 -634zM256 1024q0 320 224 544t544 224t544 -224t224 -544t-224 -544t-544 -224t-544 224t-224 544zM664 1024q0 148 106 254t254 106q152 0 256 -104t104 -256t-104 -256 t-256 -104q-148 0 -254 106t-106 254z" />
<glyph unicode="P" d="M0 1024q0 -424 300 -724t724 -300t724 300t300 724t-300 724t-724 300t-724 -300t-300 -724zM464 940l184 184l224 -228l528 528l184 -180l-712 -712z" />
<glyph unicode="Q" d="M0 1024q0 -424 300 -724t724 -300t724 300t300 724t-300 724t-724 300t-724 -300t-300 -724zM572 752l272 272l-272 272l180 180l272 -272l272 272l180 -180l-272 -272l272 -272l-180 -180l-272 272l-272 -272z" />
<glyph unicode="R" d="M64 1012h200q0 324 224 552t540 228t544 -228l-176 -180q-144 156 -368 156q-216 0 -368 -154t-152 -374h204l-324 -332zM480 484q220 -228 540 -228q316 0 540 228t224 552h200l-324 332l-320 -332h200q0 -220 -152 -374t-368 -154q-220 0 -368 156z" />
<glyph unicode="S" d="M0 1216q0 -208 140 -480t276 -440l140 -168q24 24 60 68t132 174t170 254t134 290t60 302q0 236 -164 406t-392 170q-232 0 -394 -170t-162 -406zM316 1220q0 100 70 172t170 72t168 -70t68 -174t-68 -176t-168 -72t-170 72t-70 176zM824 256h1224v384h-980 q-104 -200 -244 -384zM1080 1664q140 -168 156 -384h812v384h-968zM1128 768h920v384h-816q-12 -180 -104 -384zM1376 1464q0 64 64 64t64 -64t-64 -64t-64 64zM1528 440q0 28 20 46t44 18q64 0 64 -64t-64 -64q-24 0 -44 18t-20 46zM1712 960q0 64 64 64t64 -64t-64 -64 t-64 64z" />
<glyph unicode="T" d="M340 1536h1024l-180 -256h-160v-224l-84 -116v-316l-172 -116v432zM1108 512v172h600v-172h-600zM1108 768v172h600v-172h-600zM1108 1024v172h600v-172h-600z" />
<glyph unicode="U" d="M128 192h512v128h-384v1536h1536v-1536h-384v-128h512v1792h-1792v-1792zM508 1084l152 -136l236 192v-1076h284v1076l220 -192l140 136l-492 496z" />
<glyph unicode="V" d="M128 1024q0 -372 262 -634t634 -262t634 262t262 634t-262 634t-634 262t-634 -262t-262 -634zM256 1024q0 320 224 544t544 224t544 -224t224 -544t-224 -544t-544 -224t-544 224t-224 544z" />
<glyph unicode="W" d="M0 1024q0 -424 300 -724t724 -300t724 300t300 724t-300 724t-724 300t-724 -300t-300 -724zM896 384v256h256v-256h-256zM896 896v768h256v-768h-256z" />
<glyph unicode="X" d="M256 256v256h256v-256h-256zM256 896v256h256v-256h-256zM256 1536v256h256v-256h-256zM640 256v256h1152v-256h-1152zM640 896v256h1152v-256h-1152zM640 1536v256h1152v-256h-1152z" />
<glyph unicode="Y" d="M512 304l512 -48l512 48v844l-128 8v228q0 172 -110 290t-274 118t-274 -118t-110 -290v-228l-128 -8v-844zM768 1168v216q0 120 70 202t186 82t186 -82t70 -202v-216l-256 24z" />
<glyph unicode="Z" d="M256 384h1536v256h-1536v-256zM256 896h1536v256h-1536v-256zM256 1408h1536v256h-1536v-256z" />
<glyph unicode="a" d="M0 1024q0 -416 288 -712t704 -312h4h28q424 0 724 300t300 724t-300 724t-724 300t-724 -300t-300 -724zM128 1024q0 372 262 634t634 262t634 -262t262 -634q0 -400 -304 -672v244v28q0 88 -6 128t-40 78t-110 54q-56 12 -84 20t-72 22t-64 30t-38 36t-16 48t22 64 q110 209 110 355v15q-6 150 -86 226t-208 76q-208 0 -274 -176q-20 -52 -20 -117q0 -154 110 -379q23 -43 23 -75q0 -40 -35 -63q-64 -42 -220 -78q-12 -4 -20 -4q-80 -20 -116 -64t-38 -78t-2 -146l4 -244q-308 268 -308 672z" />
<glyph unicode="b" d="M0 0h2048v2048h-2048v-2048zM128 128v1792h1792v-1792h-1792zM384 896h512v-512h256v512h512v256h-512v512h-256v-512h-512v-256z" />
<glyph unicode="c" d="M128 128h1792v1792h-1792v-1792zM256 256v1536h1536v-1536h-1536zM416 1032l184 180l292 -296l556 556l184 -184l-744 -736z" />
<glyph unicode="d" d="M0 164h512v-164l260 292h-772v-128zM0 420h640v128h-384v124zM0 544v1152h128v128h128v-128h768v128h132v-128h256v-456q-88 16 -132 16v312h-1152v-896zM256 796h260q64 84 124 136v120h132q88 68 204 128h-80v128h132v-104q96 32 148 40v192h-920v-640zM384 924v128 h128v-128h-128zM384 1180v128h128v-128h-128zM640 1180v128h132v-128h-132zM708 684q12 -20 34 -50t94 -106t146 -136t184 -108t214 -48q164 0 330 106t252 208t86 134q-12 20 -34 50t-94 106t-146 136t-182 108t-212 48q-164 0 -332 -112t-256 -224zM1044 684q0 140 98 238 t238 98t238 -98t98 -238t-98 -238t-238 -98t-238 98t-98 238zM1268 684q0 -44 32 -78t80 -34q44 0 78 34t34 78q0 48 -34 80t-78 32q-48 0 -80 -32t-32 -80z" />
<glyph unicode="e" d="M256 1024q0 -320 224 -544t544 -224t544 224t224 544t-224 544t-544 224t-544 -224t-224 -544zM644 1280q-1 11 -1 22q0 132 93 198q108 88 284 88q156 0 260 -96q96 -84 96 -232q0 -128 -28 -176q-44 -76 -136 -136q-44 -40 -60 -68q-8 -24 -8 -112h-256q0 112 32 168 q32 52 120 116q60 52 88 96q32 52 32 104q0 68 -36 108q-48 40 -104 40q-60 0 -96 -36q-40 -32 -40 -92zM896 388v252h252v-252h-252z" />
<glyph unicode="f" d="M256 1024q0 -320 224 -544t544 -224t544 224t224 544t-224 544t-544 224t-544 -224t-224 -544zM768 616q8 52 44 142t72 174t40 96q12 36 -6 46t-42 -6q-52 -32 -76 -56l-24 48q84 84 192 112q32 8 61 8q59 0 107 -32q43 -29 43 -85q0 -37 -19 -87q-20 -48 -108 -284 q-9 -26 -9 -42q0 -15 7 -22q14 -16 46 8q24 16 88 68q8 -8 14 -22t10 -22q-128 -132 -232 -164q-47 -16 -86 -16q-41 0 -74 18q-51 27 -51 86q0 15 3 32zM1016 1418q4 50 48 86q40 32 96 32t92 -36q32 -32 32 -76v-10q-4 -50 -48 -86q-44 -32 -100 -32t-88 36q-32 32 -32 76 v10z" />
<glyph unicode="g" d="M0 1024q0 -424 300 -724t724 -300t724 300t300 724t-300 724t-724 300t-724 -300t-300 -724zM256 1280h432l336 -336l336 336h432l-768 -768z" />
<glyph unicode="h" d="M128 128h1792v1792h-1792v-1792zM256 256v1536h1536v-1536h-1536z" />
<glyph unicode="i" d="M256 1164q0 -260 186 -446t446 -186q172 0 324 92l324 -324q47 -45 100 -45q23 0 48 9q80 28 100 100q5 19 5 38q0 53 -41 106l-324 320q100 148 100 336q0 260 -186 444t-446 184q-264 0 -450 -184t-186 -444zM496 1164q0 164 118 280t282 116t280 -116t116 -280 t-116 -280t-280 -116t-282 116t-118 280z" />
<glyph unicode="j" d="M0 1024q0 424 300 724t724 300t724 -300t300 -724t-300 -724t-724 -300t-724 300t-300 724zM128 1024q0 -372 262 -634t634 -262t634 262t262 634t-262 634t-634 262t-634 -262t-262 -634zM524 384h1000v708h-124v196q0 156 -110 266t-266 110t-266 -110t-110 -266v-196 h-124v-708zM820 1092v196q0 88 60 148t144 60t144 -60t60 -148v-196h-408z" />
<glyph unicode="k" d="M0 0h2048v2048h-2048v-2048zM128 128v1792h1792v-1792h-1792zM480 664l184 -184l360 364l364 -364l180 184l-364 360l364 364l-180 180l-364 -364l-360 364l-184 -180l364 -364z" />
<glyph unicode="l" d="M704 1024l512 -512l128 128l-384 384l384 384l-128 128z" />
<glyph unicode="m" d="M704 640l128 -128l512 512l-512 512l-128 -128l384 -384z" />
<glyph unicode="n" d="M896 256h256v1536h-256v-1536z" />
<glyph unicode="o" d="M0 1024h132v-1024h1792v1024h124l-1024 1024zM388 256v760l636 644l644 -644v-760h-512v640h-256v-640h-512z" />
<glyph unicode="p" d="M220 920l184 -64q20 -76 52 -124l-84 -176l144 -148l176 84q52 -32 128 -52l64 -184h208l64 184q68 20 124 52l176 -84l148 148l-84 176q36 64 52 124l184 64v208l-184 64q-16 60 -52 124l84 180l-148 144l-176 -84q-56 32 -124 52l-64 184h-208l-64 -184 q-76 -20 -128 -52l-176 84l-144 -144l84 -180q-32 -48 -52 -124l-184 -64v-208zM576 1024q0 176 124 298t296 122t294 -124t122 -296t-122 -296t-294 -124t-296 122t-124 298z" />
<glyph unicode="q" d="M0 528v256h896v-256h-896zM0 912v256h896v-256h-896zM0 1296v256h896v-256h-896zM1024 912v256h508v360l516 -516l-516 -516v416h-508z" />
<glyph unicode="r" d="M0 1012l516 516v-360h508v-256h-508v-416zM1152 528v256h896v-256h-896zM1152 912v256h896v-256h-896zM1152 1296v256h896v-256h-896z" />
<glyph unicode="s" d="M396 1284h1280l-640 -644z" />
<glyph unicode="t" d="M0 4h1664v256h-1408v1536h896v-256h604l-376 512h-1380v-2048zM580 816l572 -432v260h768v384h-768v264z" />
<glyph unicode="u" d="M4 0h1664v256h-1408v1536h896v-256h596l-376 512h-1372v-2048zM644 640h768v-312l572 492l-572 476v-272h-768v-384z" />
<glyph unicode="v" d="M256 1024q0 -320 224 -544t544 -224t544 224t224 544t-224 544t-544 224t-544 -224t-224 -544zM786 1038q-2 15 -2 27q0 32 12 43q4 8 18 22l22 22q24 36 44 168q8 60 8 176q-76 0 -84 8q-23 23 -23 43q0 25 35 45q8 4 104 4h212q92 0 104 -8q25 -21 25 -41 q0 -22 -29 -43q-4 -12 -42 -10t-42 2q4 -28 6 -84t2 -84q16 -124 48 -172q52 -76 56 -100q2 -10 2 -20q0 -43 -26 -104l-76 -4q-76 0 -76 4q-12 -100 -22 -288t-18 -260q0 -20 -14 -28q-7 -4 -13.5 -4t-12.5 4q-12 8 -12 28l-32 544l-156 4q-4 12 -8 32t-10 74z" />
<glyph unicode="w" d="M0 640v1152h128v128h256v-128h512v128h256v-128h256v-128h-1280v-896h384q4 -36 20 -128h-532zM256 896h256q20 220 136 392v116h92q60 68 156 128h-640v-636zM392 1028v124h120v-124h-120zM392 1280v124h120v-124h-120zM636 832q0 -292 206 -498t502 -206q292 0 498 206 t206 498t-206 498t-498 206t-500 -206t-208 -498zM1024 812q0 20 52 112q-1 -4 -1 -7q0 -41 121 -89q64 -28 140 -48q220 -60 268 -108q40 -32 40 -80v-8q0 -44 -40 -128q-16 56 -140 96q-32 12 -102 30t-124 34t-94 36q-92 44 -112 96q-11 19 -11 41q0 11 3 23zM1036 472 q0 36 12 68t24 44l12 16q156 -148 492 -196q-20 -20 -48 -32q-80 -44 -188 -52h-20q-122 0 -240 44q-44 32 -44 108zM1036 1068q-2 11 -2 22q0 16 4 30q6 24 20 52l18 36l4 -4q-8 -16 24 -40q56 -36 272 -100q184 -44 252 -116q32 -40 32 -86v-10q0 -40 -52 -112 q0 28 -36 48q-88 60 -296 112q-116 36 -148 56q-80 44 -92 112zM1108 1256q80 72 220 84q23 2 47 2q110 0 225 -46q48 -28 48 -96q0 -36 -12 -70t-24 -50l-12 -16q-164 152 -492 192z" />
<glyph unicode="x" d="M0 0v256h2048v-256h-2048zM0 1188q4 36 18 64t38 62t32 50q-2 -6 -2 -12q0 -35 62 -74q72 -46 140 -70q60 -28 224 -80q20 -4 82 -20t86 -22t74 -22t76 -30t60 -32t58 -42q56 -56 68 -132q8 -16 2 -48t-6 -42t-12 -36t-16 -34t-18 -32t-18 -32q-32 92 -228 156 q-52 16 -166 46t-200 58t-154 60q-148 68 -184 156q-17 43 -17 89q0 10 1 19zM24 628q0 60 18 112t38 76l20 20q264 -248 800 -312q-20 -28 -76 -56q-144 -80 -304 -84q-26 -2 -52 -2q-183 0 -372 74q-72 52 -72 172zM24 1604q-1 15 -1 28q0 28 5 52q8 36 34 84t30 60v-4v-8 q0 -8 10 -26t34 -34q28 -20 64 -38t64 -30t78 -26t74 -22t84 -24t80 -20q316 -88 408 -192q53 -60 53 -132q0 -10 -1 -20q-4 -64 -88 -188q0 48 -56 80q-128 88 -480 184q-188 52 -244 88q-132 72 -148 188zM140 1904q128 120 356 140q39 4 78 4q174 0 370 -72 q72 -48 72 -164q0 -60 -18 -114t-38 -82l-16 -24q-276 256 -804 312zM1284 384v256h764v-256h-764zM1284 768v256h764v-256h-764zM1284 1152v256h764v-256h-764z" />
<glyph unicode="y" d="M0 968q0 -292 206 -498t498 -206t498 206t206 498t-206 498t-498 206t-498 -206t-206 -498zM364 948q4 32 56 120q-1 -4 -1 -8q0 -24 39 -50q46 -30 90 -46q92 -36 152 -52q228 -60 284 -112q40 -40 44 -88q1 -7 1 -16q0 -52 -45 -132q-20 64 -148 104q-12 4 -148 42 t-196 66q-92 44 -120 104q-11 19 -11 43q0 12 3 25zM376 584q0 40 12 74t28 46l12 16q176 -168 524 -208q-16 -16 -48 -36q-92 -52 -200 -56h-19q-127 0 -261 48q-48 36 -48 116zM380 1220q-2 13 -2 24q0 18 4 32q6 24 20 54t18 38h4q-8 -20 28 -44q32 -24 72 -42t124 -40 t92 -26q208 -56 272 -124q32 -40 32 -92v-12q0 -36 -56 -120q0 32 -36 52q-96 64 -316 124q-100 20 -164 56q-88 48 -92 120zM452 1420q92 80 236 92q28 3 57 3q109 0 235 -47q4 -4 14 -12t22 -36t12 -60q0 -40 -12 -76t-24 -52l-12 -16q-184 168 -528 204zM764 1920 q0 52 38 90t90 38t90 -36t38 -92t-38 -92t-90 -36t-90 38t-38 90zM896 128q0 56 36 92t92 36t92 -36t36 -92t-36 -92t-92 -36t-92 36t-36 92zM1536 1792q0 104 76 180t180 76t180 -76t76 -180t-76 -180t-180 -76t-180 76t-76 180zM1600 640q0 52 38 90t90 38t90 -38t38 -90 q0 -56 -36 -92t-92 -36t-92 36t-36 92z" />
<glyph unicode="z" d="M64 1280h128v-1064q0 -92 50 -154t138 -62t142 62t54 154v1064h128v128h-640v-128zM192 1732q0 64 64 64q24 0 44 -18t20 -46t-20 -46t-44 -18q-64 0 -64 64zM244 1212q0 64 64 64t64 -64t-64 -64t-64 64zM320 192q0 64 64 64t64 -64q0 -24 -18 -44t-46 -20t-46 20 t-18 44zM320 964q0 64 64 64t64 -64t-64 -64t-64 64zM444 1984q0 64 64 64t64 -64q0 -24 -18 -44t-46 -20t-46 20t-18 44zM448 1664q0 52 38 90t90 38q56 0 92 -36t36 -92t-36 -92t-92 -36q-52 0 -90 38t-38 90zM700 1852q0 64 64 64t64 -64q0 -24 -18 -44t-46 -20t-46 20 t-18 44zM864 1120q-2 -19 -2 -37q0 -44 14 -75q40 -96 200 -172q72 -32 166 -62t216 -64t178 -50q212 -64 248 -168q4 12 22 42t22 42t18 46t12 52t-2 62q-12 84 -76 140q-28 24 -64 46t-64 36t-82 32t-78 24t-94 24t-86 22q-124 36 -240 84q-217 86 -217 158q0 5 1 10 q-8 -16 -28 -44t-30 -44t-20 -46t-14 -58zM888 520q0 -56 20 -104t40 -64l20 -20q208 -77 400 -77q26 0 52 1q188 12 328 92q60 28 84 60q-568 64 -864 336q-80 -76 -80 -224zM888 1568q16 -120 156 -200q60 -32 268 -96q376 -104 516 -196q56 -36 56 -84q92 120 100 196v11 q0 89 -60 157q-96 108 -440 204q-376 104 -476 172q-24 20 -36 38t-12 30l4 8h-4q-4 -12 -24 -50t-30 -58t-16 -58q-4 -23 -4 -45q0 -15 2 -29zM1012 1892q568 -64 864 -336q76 96 80 236q0 56 -20 100t-40 60l-20 16q-212 79 -402 79q-40 0 -78 -3q-244 -24 -384 -152z" />
<glyph unicode="&#x2000;" horiz-adv-x="1026" />
<glyph unicode="&#x2001;" horiz-adv-x="2052" />
<glyph unicode="&#x2002;" horiz-adv-x="1026" />
<glyph unicode="&#x2003;" horiz-adv-x="2052" />
<glyph unicode="&#x2004;" horiz-adv-x="684" />
<glyph unicode="&#x2005;" horiz-adv-x="513" />
<glyph unicode="&#x2006;" horiz-adv-x="342" />
<glyph unicode="&#x2007;" horiz-adv-x="342" />
<glyph unicode="&#x2008;" horiz-adv-x="256" />
<glyph unicode="&#x2009;" horiz-adv-x="410" />
<glyph unicode="&#x200a;" horiz-adv-x="114" />
<glyph unicode="&#x202f;" horiz-adv-x="410" />
<glyph unicode="&#x205f;" horiz-adv-x="513" />
<glyph unicode="&#x25fc;" horiz-adv-x="2040" d="M0 0v2040h2040v-2040h-2040z" />
</font>
</defs>
</svg>
